# xmcd
#
# Track frame offsets: 
#        150
#        14065
#        28561
#        40832
#        55551
#        69904
#        83719
#        97992
#        113644
#        129296
#        144398
#        157331
#        169749
#        183426
#        197273
#        211078
#        223073
#        235875
#        249281
#        264096
#        277012
#        291118
#        304546
#        318016
#
# Disc length: 4408 seconds
#
# Revision: 0
# Processed by: cddbd v1.5.2PL0 Copyright (c) Steve Scherf et al.
# Submitted via: ExactAudioCopyFreeDBPlugin 1.0
#
DISCID=3f113618
DTITLE=Various Artist - Male Blues of the Twenties Vol. 2
DYEAR=1997
DGENRE=Blues
TTITLE0=Jesse Crump - Mr. Crump
TTITLE1=Jesse Crump - Golden West Blues
TTITLE2=J. Churchill - Sleep Baby Sleep
TTITLE3=J. Churchill - Mad Man Blues
TTITLE4=Charles Anderson - Roll On Silver Moon
TTITLE5=Charles Anderson - Laughing Yodel
TTITLE6=Tom Delaney - I'm Leavin' Just to Ease My Worried Mind
TTITLE7=Tom Delaney - Georgia Stockade Blues
TTITLE8=Tom Delaney - Bow-Legged Mama
TTITLE9=Tom Delaney - Parson Jones (You Ain't Livin' Right)
TTITLE10=Mike Jackson - Alabama Mamma
TTITLE11=Mike Jackson - Kissing Mule Blues
TTITLE12="New Orleans" Willie Jackson - Who'll Chop Your Suey When I'm
TTITLE12=Gone
TTITLE13="New Orleans" Willie Jackson - Numbers on the Brain
TTITLE14="New Orleans" Willie Jackson - Hold 'Er, Deacon
TTITLE15="New Orleans" Willie Jackson - Charleston Hound
TTITLE16="New Orleans" Willie Jackson - 'T'ain't What You Pay to Get a
TTITLE16=Thing
TTITLE17="New Orleans" Willie Jackson - Railroad Man Blues
TTITLE18="New Orleans" Willie Jackson - Long Time Men
TTITLE19="New Orleans" Willie Jackson - Corn and Bunion Blues
TTITLE20="New Orleans" Willie Jackson - Kansas City Blues
TTITLE21="New Orleans" Willie Jackson - T. B. Blues
TTITLE22="New Orleans" Willie Jackson - How Long - How Long Blues
TTITLE23="New Orleans" Willie Jackson - Deck Hand Blues
EXTD=
EXTT0=
EXTT1=
EXTT2=
EXTT3=
EXTT4=
EXTT5=
EXTT6=
EXTT7=
EXTT8=
EXTT9=
EXTT10=
EXTT11=
EXTT12=
EXTT13=
EXTT14=
EXTT15=
EXTT16=
EXTT17=
EXTT18=
EXTT19=
EXTT20=
EXTT21=
EXTT22=
EXTT23=
PLAYORDER=
